<mxfile host="app.diagrams.net" modified="2023-10-20T05:01:57.828Z" agent="Mozilla/5.0 (Windows NT 10.0; Win64; x64) AppleWebKit/537.36 (KHTML, like Gecko) Chrome/117.0.0.0 Safari/537.36" version="22.0.5" etag="D6HQXA3hl98WajP9C6R9" type="github">
  <diagram name="페이지-1" id="sr7gzK0i_kdi1o81qXTw">
    <mxGraphModel>
      <root>
        <mxCell id="0" />
        <mxCell id="1" parent="0" />
      </root>
    </mxGraphModel>
  </diagram>
</mxfile>
